<svg width="41" height="15" viewBox="0 0 41 15" fill="none" xmlns="http://www.w3.org/2000/svg">
<path d="M34.9993 14.0206L40.7117 8.30811C40.9011 8.11873 41.0075 7.86188 41.0075 7.59406C41.0075 7.32623 40.9011 7.06938 40.7117 6.88L34.9993 1.16754C34.8581 1.02588 34.6781 0.929315 34.482 0.890098C34.2859 0.850881 34.0825 0.870776 33.8977 0.947259C33.7129 1.02374 33.555 1.15337 33.444 1.31971C33.333 1.48605 33.2739 1.68161 33.2741 1.8816L33.2755 6.58438L0.0104801 6.58295L0.0104799 8.60516L33.2755 8.60373L33.2741 13.3065C33.2739 13.5065 33.333 13.7021 33.444 13.8684C33.555 14.0347 33.7129 14.1644 33.8977 14.2408C34.0825 14.3173 34.2859 14.3372 34.482 14.298C34.6781 14.2588 34.8581 14.1622 34.9993 14.0206Z" fill="black"/>
</svg>
